<?xml version="1.0" standalone="no"?><!DOCTYPE svg PUBLIC "-//W3C//DTD SVG 1.1//EN" "http://www.w3.org/Graphics/SVG/1.1/DTD/svg11.dtd"><svg class="icon" width="200px" height="200.00px" viewBox="0 0 1024 1024" version="1.1" xmlns="http://www.w3.org/2000/svg"><path d="M297.110303 361.627201c-23.743774 0-42.97886-19.298532-42.97886-42.97886 0-23.760147 19.235087-42.97886 42.97886-42.97886 23.760147 0 42.97886 19.218714 42.97886 42.97886C340.089164 342.327646 320.869427 361.627201 297.110303 361.627201L297.110303 361.627201zM726.898907 361.627201c-23.743774 0-42.97886-19.298532-42.97886-42.97886 0-23.760147 19.235087-42.97886 42.97886-42.97886 23.760147 0 42.97886 19.218714 42.97886 42.97886C769.877767 342.327646 750.65803 361.627201 726.898907 361.627201L726.898907 361.627201zM812.856627 898.81486l-601.704045 0c-47.424102 0-85.957721-38.518269-85.957721-85.957721l0-601.704045c0-47.376007 38.533618-85.957721 85.957721-85.957721l601.704045 0c47.439452 0 85.957721 38.581714 85.957721 85.957721l0 601.704045C898.814348 860.296591 860.296079 898.81486 812.856627 898.81486L812.856627 898.81486zM855.835488 211.153094c0-23.712051-19.25146-42.97886-42.97886-42.97886l-601.704045 0c-23.712051 0-42.97886 19.266809-42.97886 42.97886l0 601.704045c0 23.728424 19.266809 42.97886 42.97886 42.97886l601.704045 0c23.728424 0 42.97886-19.25146 42.97886-42.97886L855.835488 211.153094 855.835488 211.153094zM512.004605 554.983977c-130.36 0-236.335636-106.008382-236.335636-236.335636 0-11.879562 9.577123-21.537526 21.441335-21.537526 11.879562 0 21.537526 9.657964 21.537526 21.537526 0 106.616226 86.708827 193.356776 193.356776 193.356776 106.663298 0 193.452967-86.741573 193.452967-193.356776 0-11.879562 9.577123-21.537526 21.441335-21.537526 11.879562 0 21.537526 9.657964 21.537526 21.537526C748.436432 448.975595 642.379954 554.983977 512.004605 554.983977L512.004605 554.983977z" /></svg>